PathFileType	4	(X/Y/Z)	G:\TennisProject\Miami_Dimitrov_Sinner_masked_Sports2D\Miami_Dimitrov_Sinner_masked_Sports2D_px_person02.trc
DataRate	CameraRate	NumFrames	NumMarkers	Units	OrigDataRate	OrigDataStartFrame	OrigNumFrames
25	25	11	22	m	25	0	499
Frame#	Time	Hip			RHip			RKnee			RAnkle			RBigToe			RSmallToe			RHeel			LHip			LKnee			LAnkle			LBigToe			LSmallToe			LHeel			Neck			Head			Nose			RShoulder			RElbow			RWrist			LShoulder			LElbow			LWrist		
		X1	Y1	Z1	X2	Y2	Z2	X3	Y3	Z3	X4	Y4	Z4	X5	Y5	Z5	X6	Y6	Z6	X7	Y7	Z7	X8	Y8	Z8	X9	Y9	Z9	X10	Y10	Z10	X11	Y11	Z11	X12	Y12	Z12	X13	Y13	Z13	X14	Y14	Z14	X15	Y15	Z15	X16	Y16	Z16	X17	Y17	Z17	X18	Y18	Z18	X19	Y19	Z19	X20	Y20	Z20	X21	Y21	Z21	X22	Y22	Z22
0	0.0	1327.641662437138	172.70628326197985	0.0	1322.119894343998	172.70628893109685	0.0	1319.9591904232361	194.55331626719885	0.0	1317.5584126850977	216.40033088875003	0.0	1315.6378359692637	220.96185146250957	0.0	1313.4771190486686	220.96182760096735	0.0	1317.0782555606468	219.28127625084838	0.0	1332.683283022269	172.94637490880223	0.0	1332.9233564621002	194.79339359598325	0.0	1332.4432051315116	216.88050150957275	0.0	1332.2031319746816	220.4816656284703	0.0	1334.8439670944822	220.24159591307563	0.0	1331.2428433490336	219.5213500346533	0.0	1328.8420652145933	143.4168647641151	0.0	1329.3222105689688	129.01220982619589	0.0	1329.322205346824	137.1748427611169	0.0	1319.2389755826853	149.41878950833083	0.0	1315.8778681948372	161.9028383679234	0.0	1321.6397357071621	167.6646786655727	0.0	1338.4451308726955	149.89894470688958	0.0	1340.3657440642803	162.14292834375146	0.0	1335.5642056249437	167.90475441169144	0.0
1	0.04	1327.6812760172074	173.58333096798768	0.0	1321.953756143495	174.15407645314946	0.0	1320.0737203255892	195.36851445066463	0.0	1317.1130501759603	217.00934444218797	0.0	1315.7285008147064	221.65443325972916	0.0	1313.6207739986007	221.44092704321142	0.0	1317.258789576654	219.50595936494588	0.0	1332.649204091659	174.41366937640103	0.0	1332.5433069951102	195.51930129316443	0.0	1332.471594777804	217.47243106392392	0.0	1333.4303014928287	221.35024627872582	0.0	1335.3964040706246	221.29853426716312	0.0	1331.455225424961	220.24044366674332	0.0	1328.687262252859	143.1646814883269	0.0	1329.1306320395083	129.50970994095843	0.0	1329.159084409959	137.20781531445485	0.0	1318.8988747762319	149.3356085941859	0.0	1315.7230966895036	162.3203635269993	0.0	1322.8796946475275	167.72867946122352	0.0	1338.1491836768994	149.6605942911197	0.0	1339.4352499811616	162.52189659614697	0.0	1333.327522121684	167.5667144893867	0.0
2	0.08	1327.6340252345726	173.8799974899576	0.0	1321.9181985649657	174.58465132237126	0.0	1320.061220072935	195.63155854346093	0.0	1316.906461011316	217.2992821271901	0.0	1315.8482024614013	221.98160364906062	0.0	1313.6600968863577	221.74538758251305	0.0	1317.3215715343877	219.76297852695694	0.0	1332.557352973473	174.87236947766112	0.0	1332.4488916243313	195.75223005668533	0.0	1332.410769909276	217.7405856828284	0.0	1333.737145233021	221.69827637845873	0.0	1335.6441904918893	221.73079524367083	0.0	1331.5034612721597	220.5654490010185	0.0	1328.6697605693166	143.24491334095322	0.0	1329.022404274603	129.81144139532108	0.0	1329.0156319626633	137.28085929795282	0.0	1318.7963879173699	149.3718031835039	0.0	1315.8323947222589	162.4324957777425	0.0	1323.3509114700125	167.71554859481517	0.0	1338.010603052002	149.6358304669302	0.0	1339.0748278612296	162.51706738948283	0.0	1332.477647839709	167.40808992881392	0.0
3	0.12	1327.6121260642196	173.7145845417619	0.0	1321.9684350609136	174.2867301311597	0.0	1320.0140416422212	195.55667253228282	0.0	1317.0105493022884	217.34403759880985	0.0	1315.8329813102944	222.00619051388816	0.0	1313.6216613167583	221.84880200184375	0.0	1317.3020553839715	220.0327256201513	0.0	1332.5507105345014	174.63254044674457	0.0	1332.6822708749014	195.62621708154242	0.0	1332.3585459990531	217.7561547873746	0.0	1333.4913395273672	221.6154751575615	0.0	1335.7036895811507	221.62019041179545	0.0	1331.332789177921	220.5982084065937	0.0	1328.7561817358942	143.48538160101583	0.0	1329.0995003105133	129.80424673319925	0.0	1328.9538880092018	137.3150272356016	0.0	1318.9122783226508	149.3806682475193	0.0	1316.0015544338696	162.21978517434667	0.0	1323.050415570044	167.6696513000462	0.0	1338.1202559904364	149.65781484995512	0.0	1339.3022985458354	162.13831872256344	0.0	1332.8535437959222	167.3659612267376	0.0
4	0.16	1327.6505714630396	173.58320302406503	0.0	1321.954810751237	174.077593153628	0.0	1319.9692732990814	195.49457915387336	0.0	1317.137181750853	217.35233864274247	0.0	1315.6454383428809	221.9296302051314	0.0	1313.5744687739239	221.8236137179149	0.0	1317.2425922606803	220.08577225977342	0.0	1332.6413467404907	174.45612008051813	0.0	1332.893402071074	195.4852279481691	0.0	1332.3806431535145	217.68501528278256	0.0	1333.4138548822752	221.50779788401226	0.0	1335.7075204883208	221.4242162398608	0.0	1331.1759925199885	220.5690440409983	0.0	1328.771804750092	143.5380144625377	0.0	1329.2074631107416	129.6649191296172	0.0	1328.974969731105	137.31333675286083	0.0	1319.0143781076858	149.30699341896081	0.0	1316.0426475637075	162.03581522446942	0.0	1322.7546602543425	167.72298804545412	0.0	1338.2598186195592	149.583727343373	0.0	1339.5623899520688	161.8371532591205	0.0	1333.2656217858628	167.36996788167164	0.0
5	0.2	1327.6267603935994	173.70141543910896	0.0	1321.8440864834536	174.23339219939163	0.0	1319.876459723521	195.5124646390414	0.0	1317.015337700257	217.36432207707702	0.0	1315.6442802572396	221.90661616995448	0.0	1313.57848121496	221.84844806540275	0.0	1317.167363525733	219.902318316989	0.0	1332.6690029100628	174.5677661178178	0.0	1332.7926771086782	195.49310231060377	0.0	1332.3823561248187	217.58295167144246	0.0	1333.556062194664	221.561499281442	0.0	1335.6651052766017	221.43564410828063	0.0	1331.2436484284651	220.54160888640394	0.0	1328.6440227146359	143.4144854270805	0.0	1329.11712157002	129.69358887961835	0.0	1328.9845807422614	137.37632372044777	0.0	1318.9264165654877	149.3331820766962	0.0	1315.9995209517688	162.18208483979288	0.0	1322.9314370082243	167.74962193589917	0.0	1338.1521467538962	149.52233679714982	0.0	1339.4418978384433	161.98226986089512	0.0	1333.084267513073	167.37308010629644	0.0
6	0.24	1327.5736106547188	173.88071904467427	0.0	1321.7938699711835	174.5149162618426	0.0	1319.823551566135	195.62068719384078	0.0	1316.8913125663842	217.46250675291154	0.0	1315.9363236125334	221.99421570513098	0.0	1313.6227756484095	221.99189449916	0.0	1317.146933603163	219.90514747725356	0.0	1332.6380558432807	174.8162730144305	0.0	1332.648960175221	195.704479794788	0.0	1332.3561633194893	217.5863648030868	0.0	1333.612777659988	221.64911376669653	0.0	1335.6631246840561	221.56256693661834	0.0	1331.3537615978962	220.53321845082954	0.0	1328.5460081076997	143.37084247197598	0.0	1329.0027204805122	129.83107768930196	0.0	1328.978210754301	137.4609772030637	0.0	1318.7805506027885	149.47805048088625	0.0	1315.9597506453597	162.42821493236053	0.0	1323.183865403895	167.62698582498655	0.0	1337.9961765069468	149.54059109633468	0.0	1339.2685568479324	162.25643624815382	0.0	1332.7950445341307	167.34093385490692	0.0
7	0.28	1327.627944774536	173.9552805492798	0.0	1321.90447439411	174.69605208946865	0.0	1319.8972122503674	195.79255541001595	0.0	1317.0559797352792	217.72285978693026	0.0	1316.0580414574342	222.0582330854075	0.0	1313.644468315188	222.08140063810998	0.0	1317.2063477186073	220.23970693183094	0.0	1332.6770024434923	175.02164103331708	0.0	1332.793014489199	195.99964042625325	0.0	1332.4091196191457	217.76796690764974	0.0	1333.50442235599	221.62092878944028	0.0	1335.7036911699913	221.54386260183054	0.0	1331.2848681381804	220.5247566076028	0.0	1328.6250796212112	143.42765005764167	0.0	1329.092695568375	129.82278587342554	0.0	1329.0469156301824	137.41010706616515	0.0	1318.8081849418372	149.5117882843772	0.0	1316.0105202784912	162.36109485210835	0.0	1323.1658751742484	167.67668242847782	0.0	1338.1062083317358	149.5638428445425	0.0	1339.4567002920694	162.1615113180306	0.0	1332.9094589389892	167.39227428134475	0.0
8	0.32	1327.72973220717	173.96086337811457	0.0	1322.017038246636	174.76585392710322	0.0	1319.9723839899007	195.8835108451655	0.0	1317.2431054743615	217.84748019462117	0.0	1315.879352866028	222.05138290972917	0.0	1313.656496063945	222.04655838974108	0.0	1317.2679285903796	220.4410604827686	0.0	1332.765476109596	175.05616647706472	0.0	1332.990662112013	196.08098302268917	0.0	1332.5046785145807	217.89449788451668	0.0	1333.4408412078383	221.55282356840758	0.0	1335.675484862517	221.4551345818449	0.0	1331.1634244976326	220.49384346313533	0.0	1328.7472370150438	143.40092507048772	0.0	1329.1764992814926	129.72327255983197	0.0	1329.1482023161445	137.24841153850576	0.0	1318.9183518701723	149.39363882259332	0.0	1316.0666281870415	162.11529027478258	0.0	1323.1322329649047	167.98320684128566	0.0	1338.2876761524303	149.5686258990355	0.0	1339.6765994257182	161.94567450018963	0.0	1333.1082648017498	167.57613592090942	0.0
9	0.36	1327.7280988901518	173.92930647333372	0.0	1321.9875659215302	174.7398899514964	0.0	1319.8997149860036	195.80133445475957	0.0	1317.1292563944462	217.64186151485322	0.0	1315.8527384249146	222.12759475236214	0.0	1313.7035327402664	222.04318216638313	0.0	1317.276320009424	220.2768722950143	0.0	1332.7845686141445	174.93477585448446	0.0	1332.9158648139226	195.87462761004085	0.0	1332.5130853242963	217.80820620534604	0.0	1333.5146872775608	221.58047319662285	0.0	1335.5998954517227	221.53635923922408	0.0	1331.183430877417	220.51362964409037	0.0	1328.7291238104385	143.34179414753035	0.0	1329.0669552004451	129.70938958167403	0.0	1329.1548941123378	137.17932535030562	0.0	1318.882829841838	149.3472770850815	0.0	1315.9856311421752	162.15806565590566	0.0	1323.3010893609414	168.0751134823036	0.0	1338.236393444889	149.62842355238337	0.0	1339.491072059468	162.1051286184616	0.0	1332.9648587819047	167.70001944687974	0.0
10	0.4	1327.662525059838	173.87109586925675	0.0	1321.9693218879122	174.63323279547188	0.0	1319.783106498825	195.74031597439244	0.0	1316.9599016181792	217.53769588842636	0.0	1316.144763421858	222.28630161966618	0.0	1313.7829329990345	222.1639619581517	0.0	1317.312380108144	220.2019561072774	0.0	1332.7506038406757	174.83830619923555	0.0	1332.761696331153	195.72949878471417	0.0	1332.4698196281608	217.72303539569467	0.0	1333.5738056897474	221.65459688350862	0.0	1335.6293614711642	221.6419590598021	0.0	1331.2405234079065	220.611745963497	0.0	1328.6527001094023	143.43104099230118	0.0	1328.998531408793	129.7440897496623	0.0	1329.083621833957	137.28123773183452	0.0	1318.7892090211917	149.40999127424988	0.0	1315.9226853014363	162.4194850437067	0.0	1323.4549270013829	167.80556852081253	0.0	1338.1212560044435	149.70628617763714	0.0	1339.2459677531408	162.3650884894984	0.0	1332.7401734869231	167.58993655392234	0.0
